<svg id="doughnut" xmlns="http://www.w3.org/2000/svg" width="63.069" height="63.069" viewBox="0 0 63.069 63.069">
  <g id="Group_89" data-name="Group 89">
    <g id="Group_88" data-name="Group 88">
      <path id="Path_485" data-name="Path 485" d="M58.978,240.468a12.252,12.252,0,0,1-9.151-1.7,7.548,7.548,0,0,0-4-1.853,11.451,11.451,0,0,1-11.352,10.052,9.48,9.48,0,0,1-1.7-.154c-2.3,2.047-5.8,3.256-8.456,1.648-2.149-1.3-3-3.9-3.6-6.346-.6-2.407-1.249-5.007-3.2-6.551a8.551,8.551,0,0,0-5.753-1.4c-1.75.051-6.14.656-8.353,6.449a31.482,31.482,0,0,0,62.425-2.1C65.478,238.563,61.308,239.863,58.978,240.468Z" transform="translate(-2.962 -204.004)" fill="#ff9293"/>
      <path id="Path_486" data-name="Path 486" d="M8.7,27.609c3.321-.09,5.7.656,7.4,1.956,2.651,2.047,3.449,5.3,4.106,7.954.5,2.047,1.146,4,2.446,4.8.4.245,1.866.811,4.054-.4A11.408,11.408,0,1,1,42.861,30.376a8.148,8.148,0,0,1,4.8,1.853c.206.154,5.547,3.334,10.554.952,2.973-1.068,4.852-1.506,4.852-1.648A31.534,31.534,0,1,0,0,31.56v.7C2.227,28.445,5.946,27.712,8.7,27.609Zm45.513-5.251c.348,0,1.6.1,2,1.9l.45,2.047a1.231,1.231,0,0,1-.952,1.506,1.247,1.247,0,0,1-1.545-.952l-.45-2.047v-.051a1.217,1.217,0,0,1-.747-1.146A1.314,1.314,0,0,1,54.214,22.357Zm-9.254-10.8a1.27,1.27,0,0,1,1.8-.154,5.407,5.407,0,0,1,1.545,2.252,1.266,1.266,0,0,1-.85,1.6,1.253,1.253,0,0,1-1.6-.85,2.75,2.75,0,0,0-.7-1.055A1.308,1.308,0,0,1,44.959,11.558ZM34.006,6.848h2a1.249,1.249,0,0,1,0,2.5h-2A1.242,1.242,0,0,1,32.757,8.1,1.21,1.21,0,0,1,34.006,6.848Zm-13.8,4.762,1.055-.656A1.27,1.27,0,0,1,22.615,13.1l-1.055.656a1.264,1.264,0,0,1-1.75-.4A1.231,1.231,0,0,1,20.208,11.61ZM7.3,22.653a5.366,5.366,0,0,1,1.249-1.6,1.279,1.279,0,1,1,1.648,1.956,2.83,2.83,0,0,0-.656.8,1.308,1.308,0,0,1-1.75.553A1.269,1.269,0,0,1,7.3,22.653Z" fill="#ff9293"/>
    </g>
  </g>
</svg>
