<svg id="food" xmlns="http://www.w3.org/2000/svg" width="63.117" height="61.267" viewBox="0 0 63.117 61.267">
  <g id="Group_97" data-name="Group 97" transform="translate(0 0)">
    <g id="Group_95" data-name="Group 95">
      <g id="Group_94" data-name="Group 94">
        <path id="Path_491" data-name="Path 491" d="M63.069,29.416H0v-2.1A20.113,20.113,0,0,1,20.066,7.187H42.938A20.066,20.066,0,0,1,63,27.253V29.4h.064Z" transform="translate(0 -7.187)" fill="#ff9293"/>
        <path id="Path_492" data-name="Path 492" d="M59.31,412.351H3.758A3.779,3.779,0,0,1,0,408.593v-6.706H63.069v6.706A3.779,3.779,0,0,1,59.31,412.351Z" transform="translate(0 -351.084)" fill="#ff9293"/>
        <path id="Path_493" data-name="Path 493" d="M185.9,288.787l13.463,10.258,10.117-10.258Z" transform="translate(-161.972 -252.542)" fill="#ff9293"/>
        <path id="Path_494" data-name="Path 494" d="M19.719,288.787H0v7.9H30.08Z" transform="translate(0 -252.542)" fill="#ff9293"/>
        <path id="Path_495" data-name="Path 495" d="M344.213,288.787l-7.813,7.9h19.77v-7.9Z" transform="translate(-293.101 -252.542)" fill="#ff9293"/>
      </g>
    </g>
    <g id="Group_96" data-name="Group 96" transform="translate(0.106 25.434)">
      <path id="Path_496" data-name="Path 496" d="M49.372,211.544a7.594,7.594,0,0,1-5.406-2.24,4.428,4.428,0,0,0-6.255,0,7.644,7.644,0,0,1-10.812,0,4.428,4.428,0,0,0-6.255,0,7.644,7.644,0,0,1-10.812,0,4.428,4.428,0,0,0-6.255,0A1.611,1.611,0,1,1,1.3,207.027a7.66,7.66,0,0,1,10.825,0,4.413,4.413,0,0,0,6.255,0,7.66,7.66,0,0,1,10.825,0,4.413,4.413,0,0,0,6.255,0,7.66,7.66,0,0,1,10.825,0,4.413,4.413,0,0,0,6.255,0,7.66,7.66,0,0,1,10.825,0,1.611,1.611,0,1,1-2.278,2.278,4.428,4.428,0,0,0-6.255,0A7.8,7.8,0,0,1,49.372,211.544Z" transform="translate(-0.825 -204.787)" fill="#ff9293"/>
    </g>
  </g>
</svg>
