<svg id="food_1_" data-name="food (1)" xmlns="http://www.w3.org/2000/svg" width="63.069" height="63.069" viewBox="0 0 63.069 63.069">
  <g id="Group_91" data-name="Group 91">
    <g id="Group_90" data-name="Group 90">
      <path id="Path_487" data-name="Path 487" d="M62.515,25.627l-5.56,1.055A25.878,25.878,0,0,1,31.522,57.367,25.858,25.858,0,1,1,31.534,5.65,26.736,26.736,0,0,1,40.943,7.4L42.99,2.149A31.042,31.042,0,0,0,31.534,0,31.535,31.535,0,1,0,63.069,31.535,33.522,33.522,0,0,0,62.515,25.627Z" fill="#ff9293"/>
      <path id="Path_488" data-name="Path 488" d="M93.642,63.1a23.223,23.223,0,0,0-8.611-1.6,23.625,23.625,0,1,0,23.632,23.619,25.8,25.8,0,0,0-.4-4.4l-23.233,4.4Zm10.065,30.286-.656,1.055a1.277,1.277,0,0,1-1.75.4,1.231,1.231,0,0,1-.4-1.75l.656-1.055a1.27,1.27,0,1,1,2.149,1.351Zm-2.3-9.409a6.292,6.292,0,0,1,1.956.154,1.286,1.286,0,0,1,.952,1.557,1.267,1.267,0,0,1-1.557.9,4.319,4.319,0,0,0-1.146-.1,1.246,1.246,0,0,1-1.351-1.146A1.19,1.19,0,0,1,101.4,83.973ZM94.44,89.225a1.986,1.986,0,0,1,1.8,1.506,1.34,1.34,0,0,1-1.2,1.6,1.374,1.374,0,0,1-1.107-.6,1.242,1.242,0,0,1-.8-1.249A1.281,1.281,0,0,1,94.44,89.225Zm-5.11,5.251a4.157,4.157,0,1,1-4.157,4.157A4.2,4.2,0,0,1,89.331,94.476ZM75.417,67.1a10.128,10.128,0,0,1,2.458-.7,1.3,1.3,0,0,1,1.454,1.055,1.322,1.322,0,0,1-1.055,1.454,7.592,7.592,0,0,0-1.853.5,1.272,1.272,0,0,1-1.648-.7A1.214,1.214,0,0,1,75.417,67.1Zm-4.4,5.8a2.761,2.761,0,0,1,1.75.5,1.3,1.3,0,0,1,.245,1.8,1.255,1.255,0,0,1-1.75.245,1.315,1.315,0,0,1-1.4-1.2A1.231,1.231,0,0,1,71.015,72.9ZM66.162,86.869a1.269,1.269,0,0,1,1.8-.245l1.6,1.2a1.269,1.269,0,0,1,.245,1.8,1.243,1.243,0,0,1-1.75.245L66.407,88.62A1.272,1.272,0,0,1,66.162,86.869Zm4.608,13.36a1.3,1.3,0,0,1-1.8.051l-.656-.656a1.274,1.274,0,0,1,1.8-1.8l.656.656A1.206,1.206,0,0,1,70.77,100.23Zm4.6-4.852a1.246,1.246,0,0,1-1.8-.051l-1-1.055a1.274,1.274,0,0,1,1.8-1.8l1,1.055A1.327,1.327,0,0,1,75.365,95.377Zm-.9-9.46a4.054,4.054,0,1,1,4.054-4.054A4.1,4.1,0,0,1,74.464,85.917Zm7.761,19.371a1.247,1.247,0,0,1-1.6.8l-2.3-.747a1.262,1.262,0,1,1,.8-2.394l2.3.747A1.205,1.205,0,0,1,82.226,105.288Zm1.7-14.158a1.25,1.25,0,0,1-1.7.5,9.352,9.352,0,0,1-2.047-1.648,1.276,1.276,0,0,1,1.9-1.7,5.853,5.853,0,0,0,1.351,1.107A1.24,1.24,0,0,1,83.925,91.13Zm0-14.866a1.3,1.3,0,0,1-1.8-.154,9.092,9.092,0,0,1-1.351-2.047,1.275,1.275,0,1,1,2.3-1.094,5.917,5.917,0,0,0,1,1.506A1.256,1.256,0,0,1,83.925,76.263Zm.6-10.361a1.26,1.26,0,0,1,1.055-1.454,2.725,2.725,0,0,1,2.549.952,1.279,1.279,0,0,1-1.956,1.648.387.387,0,0,0-.245-.1A1.27,1.27,0,0,1,84.53,65.9Z" transform="translate(-53.497 -53.584)" fill="#ff9293"/>
    </g>
  </g>
</svg>
