<svg xmlns="http://www.w3.org/2000/svg" width="65" height="65" viewBox="0 0 65 65">
  <g id="Group_84" data-name="Group 84" transform="translate(-1274 -104)">
    <circle id="Ellipse_22" data-name="Ellipse 22" cx="32.5" cy="32.5" r="32.5" transform="translate(1274 104)" fill="#4092ef"/>
    <path id="pen" d="M30.839,1.373a4.8,4.8,0,0,0-6.779,0l-1.7,1.706L4.3,21.134l-.038.039c-.009.009-.009.019-.019.019-.019.029-.048.057-.067.086,0,.01-.01.01-.01.019-.019.029-.028.048-.048.077-.009.01-.009.019-.019.029-.01.029-.019.048-.029.077,0,.009-.009.009-.009.019L.05,33.552a.944.944,0,0,0,.23.978.965.965,0,0,0,.681.278,1.131,1.131,0,0,0,.307-.048l12.043-4.018c.009,0,.009,0,.019-.009a.347.347,0,0,0,.086-.039.034.034,0,0,0,.019-.009c.028-.019.067-.039.1-.058s.058-.048.086-.067c.01-.01.019-.01.019-.019s.029-.019.039-.038L33.437,10.741a4.8,4.8,0,0,0,0-6.779ZM13,28.489,6.331,21.816l16.7-16.7,6.674,6.673Zm-7.613-4.9,5.83,5.83L2.466,32.334ZM32.085,9.4l-1.016,1.026L24.395,3.751l1.026-1.026a2.876,2.876,0,0,1,4.065,0l2.608,2.608A2.886,2.886,0,0,1,32.085,9.4Zm0,0" transform="translate(1289.085 119.113)" fill="#fff"/>
  </g>
</svg>
