<svg id="pizza_1_" data-name="pizza (1)" xmlns="http://www.w3.org/2000/svg" width="61.074" height="63.07" viewBox="0 0 61.074 63.07">
  <g id="Group_99" data-name="Group 99" transform="translate(0 0)">
    <g id="Group_98" data-name="Group 98">
      <path id="Path_497" data-name="Path 497" d="M7.752,7.9l5.509,9.911a51.722,51.722,0,0,1,50.108-.1l5.457-9.859A63.126,63.126,0,0,0,7.752,7.9Z" transform="translate(-7.752 0)" fill="#ff9293"/>
      <path id="Path_498" data-name="Path 498" d="M83.78,107.7a49.386,49.386,0,0,0-23.928,6.152L83.78,156.91l23.773-43.093C103.923,111.809,97.423,107.7,83.78,107.7Zm-.656,5.509a1.264,1.264,0,0,1,1.3-1.3,3.778,3.778,0,0,1,2.047.747,1.276,1.276,0,0,1,.206,1.8,1.321,1.321,0,0,1-1.8.257,1.037,1.037,0,0,0-.553-.206A1.234,1.234,0,0,1,83.123,113.212Zm-13.515,4.209a1.253,1.253,0,0,1-1.8-.257,3.862,3.862,0,0,1-.7-3.2,1.289,1.289,0,0,1,2.51.592,1.151,1.151,0,0,0,.206,1A1.348,1.348,0,0,1,69.608,117.421Zm14.068,24.172a1.153,1.153,0,0,1-1.648-.747,12.856,12.856,0,0,0-1.3-2.51,1.262,1.262,0,0,1,2.1-1.4,13.866,13.866,0,0,1,1.545,3.051A1.192,1.192,0,0,1,83.677,141.593Zm.18-8.006a8.212,8.212,0,1,1,8.212-8.212A8.218,8.218,0,0,1,83.857,133.587ZM99.2,119.12a1.251,1.251,0,0,1-1.647-.747,10.523,10.523,0,0,1-.656-3.707,1.242,1.242,0,0,1,1.249-1.249,1.3,1.3,0,0,1,1.249,1.3,7.778,7.778,0,0,0,.5,2.806A1.2,1.2,0,0,1,99.2,119.12Z" transform="translate(-53.146 -93.84)" fill="#ff9293"/>
    </g>
  </g>
</svg>
