<svg id="remove_1_" data-name="remove (1)" xmlns="http://www.w3.org/2000/svg" width="65" height="65.831" viewBox="0 0 65 65.831">
  <path id="Path_481" data-name="Path 481" d="M128,154.351h28.213V152H128Zm0,0" transform="translate(-109.607 -129.665)" fill="#e64d4d"/>
  <path id="Path_482" data-name="Path 482" d="M32.5,0A32.71,32.71,0,0,0,0,32.915,32.71,32.71,0,0,0,32.5,65.831,32.71,32.71,0,0,0,65,32.915,32.747,32.747,0,0,0,32.5,0ZM48.75,25.862a1.168,1.168,0,0,1-1.161,1.176H46.318L44.107,49.491a1.167,1.167,0,0,1-1.161,1.058H22.054a1.167,1.167,0,0,1-1.161-1.058L18.688,27.038H17.411a1.168,1.168,0,0,1-1.161-1.176v-4.7a1.168,1.168,0,0,1,1.161-1.176H29.232a3.482,3.482,0,1,1,6.537,0H47.589A1.168,1.168,0,0,1,48.75,21.16Zm0,0" fill="#e64d4d"/>
  <path id="Path_483" data-name="Path 483" d="M146.956,205.16h19.038L168.11,184H144.84Zm14.224-15.428a1.175,1.175,0,1,1,2.332.292l-1.176,9.4a1.175,1.175,0,0,1-1.162,1.03,1.255,1.255,0,0,1-.147-.009,1.176,1.176,0,0,1-1.021-1.312Zm-5.883.146a1.176,1.176,0,1,1,2.351,0v9.4a1.176,1.176,0,1,1-2.351,0Zm-4.848-1.166a1.176,1.176,0,0,1,1.312,1.021l1.176,9.4a1.176,1.176,0,0,1-1.021,1.312,1.374,1.374,0,0,1-.146.009,1.176,1.176,0,0,1-1.165-1.03l-1.176-9.4A1.176,1.176,0,0,1,150.449,188.711Zm0,0" transform="translate(-123.972 -156.962)" fill="#e64d4d"/>
  <path id="Path_484" data-name="Path 484" d="M218.351,121.176A1.176,1.176,0,1,1,217.176,120,1.176,1.176,0,0,1,218.351,121.176Zm0,0" transform="translate(-184.676 -102.367)" fill="#e64d4d"/>
</svg>
