<svg xmlns="http://www.w3.org/2000/svg" xmlns:xlink="http://www.w3.org/1999/xlink" width="99" height="88" viewBox="0 0 99 88">
  <defs>
    <clipPath id="clip-path">
      <rect width="99" height="88" fill="none"/>
    </clipPath>
  </defs>
  <g id="Repeat_Grid_15" data-name="Repeat Grid 15" clip-path="url(#clip-path)">
    <g transform="translate(-1290 -393)">
      <circle id="Ellipse_6" data-name="Ellipse 6" cx="6" cy="6" r="6" transform="translate(1290 393)" fill="#0a0402"/>
    </g>
    <g transform="translate(-1270 -393)">
      <circle id="Ellipse_6-2" data-name="Ellipse 6" cx="6" cy="6" r="6" transform="translate(1290 393)" fill="#0a0402"/>
    </g>
    <g transform="translate(-1250 -393)">
      <circle id="Ellipse_6-3" data-name="Ellipse 6" cx="6" cy="6" r="6" transform="translate(1290 393)" fill="#0a0402"/>
    </g>
    <g transform="translate(-1230 -393)">
      <circle id="Ellipse_6-4" data-name="Ellipse 6" cx="6" cy="6" r="6" transform="translate(1290 393)" fill="#0a0402"/>
    </g>
    <g transform="translate(-1210 -393)">
      <circle id="Ellipse_6-5" data-name="Ellipse 6" cx="6" cy="6" r="6" transform="translate(1290 393)" fill="#0a0402"/>
    </g>
    <g transform="translate(-1290 -375)">
      <circle id="Ellipse_6-6" data-name="Ellipse 6" cx="6" cy="6" r="6" transform="translate(1290 393)" fill="#0a0402"/>
    </g>
    <g transform="translate(-1270 -375)">
      <circle id="Ellipse_6-7" data-name="Ellipse 6" cx="6" cy="6" r="6" transform="translate(1290 393)" fill="#0a0402"/>
    </g>
    <g transform="translate(-1250 -375)">
      <circle id="Ellipse_6-8" data-name="Ellipse 6" cx="6" cy="6" r="6" transform="translate(1290 393)" fill="#0a0402"/>
    </g>
    <g transform="translate(-1230 -375)">
      <circle id="Ellipse_6-9" data-name="Ellipse 6" cx="6" cy="6" r="6" transform="translate(1290 393)" fill="#0a0402"/>
    </g>
    <g transform="translate(-1210 -375)">
      <circle id="Ellipse_6-10" data-name="Ellipse 6" cx="6" cy="6" r="6" transform="translate(1290 393)" fill="#0a0402"/>
    </g>
    <g transform="translate(-1290 -357)">
      <circle id="Ellipse_6-11" data-name="Ellipse 6" cx="6" cy="6" r="6" transform="translate(1290 393)" fill="#0a0402"/>
    </g>
    <g transform="translate(-1270 -357)">
      <circle id="Ellipse_6-12" data-name="Ellipse 6" cx="6" cy="6" r="6" transform="translate(1290 393)" fill="#0a0402"/>
    </g>
    <g transform="translate(-1250 -357)">
      <circle id="Ellipse_6-13" data-name="Ellipse 6" cx="6" cy="6" r="6" transform="translate(1290 393)" fill="#0a0402"/>
    </g>
    <g transform="translate(-1230 -357)">
      <circle id="Ellipse_6-14" data-name="Ellipse 6" cx="6" cy="6" r="6" transform="translate(1290 393)" fill="#0a0402"/>
    </g>
    <g transform="translate(-1210 -357)">
      <circle id="Ellipse_6-15" data-name="Ellipse 6" cx="6" cy="6" r="6" transform="translate(1290 393)" fill="#0a0402"/>
    </g>
    <g transform="translate(-1290 -339)">
      <circle id="Ellipse_6-16" data-name="Ellipse 6" cx="6" cy="6" r="6" transform="translate(1290 393)" fill="#0a0402"/>
    </g>
    <g transform="translate(-1270 -339)">
      <circle id="Ellipse_6-17" data-name="Ellipse 6" cx="6" cy="6" r="6" transform="translate(1290 393)" fill="#0a0402"/>
    </g>
    <g transform="translate(-1250 -339)">
      <circle id="Ellipse_6-18" data-name="Ellipse 6" cx="6" cy="6" r="6" transform="translate(1290 393)" fill="#0a0402"/>
    </g>
    <g transform="translate(-1230 -339)">
      <circle id="Ellipse_6-19" data-name="Ellipse 6" cx="6" cy="6" r="6" transform="translate(1290 393)" fill="#0a0402"/>
    </g>
    <g transform="translate(-1210 -339)">
      <circle id="Ellipse_6-20" data-name="Ellipse 6" cx="6" cy="6" r="6" transform="translate(1290 393)" fill="#0a0402"/>
    </g>
    <g transform="translate(-1290 -321)">
      <circle id="Ellipse_6-21" data-name="Ellipse 6" cx="6" cy="6" r="6" transform="translate(1290 393)" fill="#0a0402"/>
    </g>
    <g transform="translate(-1270 -321)">
      <circle id="Ellipse_6-22" data-name="Ellipse 6" cx="6" cy="6" r="6" transform="translate(1290 393)" fill="#0a0402"/>
    </g>
    <g transform="translate(-1250 -321)">
      <circle id="Ellipse_6-23" data-name="Ellipse 6" cx="6" cy="6" r="6" transform="translate(1290 393)" fill="#0a0402"/>
    </g>
    <g transform="translate(-1230 -321)">
      <circle id="Ellipse_6-24" data-name="Ellipse 6" cx="6" cy="6" r="6" transform="translate(1290 393)" fill="#0a0402"/>
    </g>
    <g transform="translate(-1210 -321)">
      <circle id="Ellipse_6-25" data-name="Ellipse 6" cx="6" cy="6" r="6" transform="translate(1290 393)" fill="#0a0402"/>
    </g>
  </g>
</svg>
